<?xml version="1.0" encoding="UTF-8" standalone="no"?>
<!-- Created with Inkscape (http://www.inkscape.org/) -->

<svg
   xmlns:dc="http://purl.org/dc/elements/1.1/"
   xmlns:cc="http://creativecommons.org/ns#"
   xmlns:rdf="http://www.w3.org/1999/02/22-rdf-syntax-ns#"
   xmlns:svg="http://www.w3.org/2000/svg"
   xmlns="http://www.w3.org/2000/svg"
   xmlns:sodipodi="http://sodipodi.sourceforge.net/DTD/sodipodi-0.dtd"
   xmlns:inkscape="http://www.inkscape.org/namespaces/inkscape"
   width="512"
   height="512"
   viewBox="0 0 512.00001 512.00001"
   id="svg2"
   version="1.1"
   inkscape:version="0.91 r13725"
   sodipodi:docname="logo.svg">
  <defs
     id="defs4" />
  <sodipodi:namedview
     id="base"
     pagecolor="#ffffff"
     bordercolor="#666666"
     borderopacity="1.0"
     inkscape:pageopacity="0.0"
     inkscape:pageshadow="2"
     inkscape:zoom="0.7"
     inkscape:cx="226.36444"
     inkscape:cy="338.85087"
     inkscape:document-units="px"
     inkscape:current-layer="layer1"
     showgrid="false"
     units="px"
     inkscape:window-width="1280"
     inkscape:window-height="752"
     inkscape:window-x="0"
     inkscape:window-y="25"
     inkscape:window-maximized="1" />
  <metadata
     id="metadata7">
    <rdf:RDF>
      <cc:Work
         rdf:about="">
        <dc:format>image/svg+xml</dc:format>
        <dc:type
           rdf:resource="http://purl.org/dc/dcmitype/StillImage" />
        <dc:title></dc:title>
      </cc:Work>
    </rdf:RDF>
  </metadata>
  <g
     inkscape:label="Layer 1"
     inkscape:groupmode="layer"
     id="layer1"
     transform="translate(0,-540.36216)"
     style="display:inline">
    <path
       style="opacity:1;fill-opacity:1;stroke:none;stroke-width:0.90479559;stroke-opacity:1"
       d="M 182.83789 95.769531 A 85.910568 70.253204 0 0 0 96.927734 166.02344 A 85.910568 70.253204 0 0 0 97.583984 173.96484 A 83.908905 96.546326 0 0 0 89.892578 173.52148 A 83.908905 96.546326 0 0 0 5.984375 270.06836 A 83.908905 96.546326 0 0 0 89.892578 366.61523 A 83.908905 96.546326 0 0 0 122.49805 358.91992 A 110.6117 110.6117 0 0 0 206.57617 397.85352 A 110.6117 110.6117 0 0 0 260.99609 383.38281 A 111.61958 110.60944 0 0 0 330.32031 407.44727 A 111.61958 110.60944 0 0 0 423.28711 357.92773 A 76.923866 76.923866 0 0 0 426.78906 358.10352 A 76.923866 76.923866 0 0 0 503.71289 281.17969 A 76.923866 76.923866 0 0 0 439.96094 205.4707 A 107.4258 101.86996 0 0 0 332.8457 111.125 A 107.4258 101.86996 0 0 0 261.12891 137.3125 A 85.910568 70.253204 0 0 0 182.83789 95.769531 z "
       id="cloud"
       transform="translate(0,540.36216)" />
  </g>
</svg>
